<svg xmlns="http://www.w3.org/2000/svg" xmlns:xlink="http://www.w3.org/1999/xlink" xmlns:fi="http://pattern.flaticon.com/" x="0" y="0" width="700" height="350" viewBox="0 0 1633.3333333333335 816.6666666666667"><rect x="0px" y="0px" width="100%" height="100%" opacity="1" fill="#e1e1e1"/><defs><g transform="matrix(0.9375 0 0 0.9375 96 269)" id="L1_18"><path d="m26.287 38.299 1.427 1.401c1.763-1.795 2.98-2.98 2.984-2.984l-1.395-1.434c0 .001-1.232 1.199-3.016 3.017z" fill="#bfbfbf"/><path d="m56.482 50.008c.255-1.807.518-3.675.518-6.008 0-9.443-5.847-11.541-9.537-11.923 2.537-6.394 2.537-10.296 2.537-14.077 0-9.533-4.71-17-10.724-17-1.002 0-1.845.346-2.505 1.029-1.897 1.961-1.75 6.356-1.608 10.607.081 2.399.156 4.667-.144 6.168-.582 2.91-2.122 5.337-3.284 6.838-1.032-6.295-4.99-8.642-8.735-8.642-3.472 0-7.893 3.366-8.98 8.804-.53 2.648-2.002 4.401-3.186 5.81-.984 1.17-1.834 2.181-1.834 3.386 0 1.299 1.03 2 2 2 4.202 0 7.774-3.377 10.383-5.842.931-.881 2.207-2.087 2.617-2.158.651 0 .962.256.997 1.714-2.253 3.477-6.159 6.865-9.613 9.862-4.499 3.903-8.384 7.274-8.384 10.424v3c0 .123.057 3 5 3 3.622 0 12.449-.765 21.081-7.172-.137.396-.275.794-.413 1.19-1.66 4.773-2.668 7.758-2.668 8.982 0 2.201 1.794 3 3 3h.083l.082-.014c5.308-.885 11.181-8.584 13.644-16.657.428 1.144.539 2.821.661 4.655.299 4.504.709 10.672 7.334 11.997l.196.019c1.299 0 2-1.03 2-2l-.039-.276c-1.333-4.649-.937-7.461-.479-10.716zm-1.482-6.008c0 2.192-.253 3.99-.498 5.729-.402 2.854-.784 5.573.021 9.465-1.799-3.612-1.691-6.432-1.578-9.171.028-.68.055-1.352.055-2.023 0-5.077-2.715-7.353-5.009-8.609.002-.13.009-.262.009-.391 0-1.891-.247-3.522-.668-4.932 6.631.676 7.668 6.421 7.668 9.932zm-18.02-24.804c.346-1.729.267-4.108.182-6.627-.116-3.475-.261-7.798 1.046-9.15.277-.286.617-.419 1.068-.419 4.81 0 8.724 6.729 8.724 15 0 3.639-.008 7.103-2.192 12.805-2.43-3.638-6.332-4.805-8.808-4.805-1.296 0-2.487.281-3.528.676 1.276-1.685 2.873-4.3 3.508-7.48zm-24.615 13.704c1.26-1.5 2.986-3.553 3.616-6.704.938-4.695 4.68-7.196 7.019-7.196 3.237 0 5.511 2.039 6.479 5.628-.953-1.562-2.402-2.628-4.479-2.628-3.632 0-5.858 3.482-8.012 6.851-1.767 2.764-3.592 5.62-5.988 6.132.016-.478.671-1.258 1.365-2.083zm-3.365 21.1v-1.924c1.003.143 2 .477 2 .924 0 .891-.236 1.512-.436 1.883-1.134-.211-1.529-.652-1.564-.883zm3.681.99c.181-.539.319-1.195.319-1.99 0-.156-.017-.303-.042-.445 3.182-2.164 6.694-5.05 10.726-8.825l-1.367-1.46c-3.969 3.716-7.412 6.546-10.515 8.653-.707-.465-1.648-.734-2.615-.85.797-2.162 4.068-5.001 7.507-7.986 3.642-3.16 7.769-6.741 10.154-10.557l.152-.243v-.287c0-2.654-1.009-4-3-4-1.13 0-2.268 1.076-3.991 2.704-.856.809-1.827 1.725-2.879 2.566.53-.759 1.039-1.554 1.543-2.342 1.95-3.049 3.79-5.928 6.327-5.928 3.888 0 4 6.284 4 7v2h2c1.342 0 2.355.462 3.097 1.414 1.816 2.326 1.553 6.862.933 9.344-.17.681-.438 1.563-.757 2.548-8.376 7.409-17.453 8.578-21.592 8.684zm21.876-3.315c.971-2.79 1.974-5.675 2.414-7.433.616-2.463 1.137-7.943-1.296-11.06-1.116-1.427-2.732-2.182-4.675-2.182 0-.182-.003-.366-.009-.55.134-.115.328-.268.547-.433 5.686.175 8.462 3.112 8.462 8.983 0 5.957-5.358 15.643-7.732 19.643.465-1.722 1.451-4.559 2.289-6.968zm-1.328 9.249c1.758-2.833 8.771-14.596 8.771-21.924 0-5.775-2.591-9.437-7.381-10.599.731-.236 1.528-.401 2.381-.401 3.113 0 9 2.299 9 11 0 9.342-7.362 20.552-12.771 21.924zm16.236-10.072c-.192-2.895-.381-5.65-1.991-7.093.15-.716.268-1.428.355-2.135 1.715 1.136 3.171 2.914 3.171 6.376 0 .644-.027 1.288-.054 1.941-.118 2.862-.24 6.045 1.756 10.083-2.747-1.85-2.997-5.56-3.237-9.172z" fill="#bfbfbf"/></g><g transform="matrix(0.9375 0 0 0.9375 219 33)" id="L1_19"><path d="m26.287 38.299 1.427 1.401c1.763-1.795 2.98-2.98 2.984-2.984l-1.395-1.434c0 .001-1.232 1.199-3.016 3.017z" fill="#4d4d4d"/><path d="m56.482 50.008c.255-1.807.518-3.675.518-6.008 0-9.443-5.847-11.541-9.537-11.923 2.537-6.394 2.537-10.296 2.537-14.077 0-9.533-4.71-17-10.724-17-1.002 0-1.845.346-2.505 1.029-1.897 1.961-1.75 6.356-1.608 10.607.081 2.399.156 4.667-.144 6.168-.582 2.91-2.122 5.337-3.284 6.838-1.032-6.295-4.99-8.642-8.735-8.642-3.472 0-7.893 3.366-8.98 8.804-.53 2.648-2.002 4.401-3.186 5.81-.984 1.17-1.834 2.181-1.834 3.386 0 1.299 1.03 2 2 2 4.202 0 7.774-3.377 10.383-5.842.931-.881 2.207-2.087 2.617-2.158.651 0 .962.256.997 1.714-2.253 3.477-6.159 6.865-9.613 9.862-4.499 3.903-8.384 7.274-8.384 10.424v3c0 .123.057 3 5 3 3.622 0 12.449-.765 21.081-7.172-.137.396-.275.794-.413 1.19-1.66 4.773-2.668 7.758-2.668 8.982 0 2.201 1.794 3 3 3h.083l.082-.014c5.308-.885 11.181-8.584 13.644-16.657.428 1.144.539 2.821.661 4.655.299 4.504.709 10.672 7.334 11.997l.196.019c1.299 0 2-1.03 2-2l-.039-.276c-1.333-4.649-.937-7.461-.479-10.716zm-1.482-6.008c0 2.192-.253 3.99-.498 5.729-.402 2.854-.784 5.573.021 9.465-1.799-3.612-1.691-6.432-1.578-9.171.028-.68.055-1.352.055-2.023 0-5.077-2.715-7.353-5.009-8.609.002-.13.009-.262.009-.391 0-1.891-.247-3.522-.668-4.932 6.631.676 7.668 6.421 7.668 9.932zm-18.02-24.804c.346-1.729.267-4.108.182-6.627-.116-3.475-.261-7.798 1.046-9.15.277-.286.617-.419 1.068-.419 4.81 0 8.724 6.729 8.724 15 0 3.639-.008 7.103-2.192 12.805-2.43-3.638-6.332-4.805-8.808-4.805-1.296 0-2.487.281-3.528.676 1.276-1.685 2.873-4.3 3.508-7.48zm-24.615 13.704c1.26-1.5 2.986-3.553 3.616-6.704.938-4.695 4.68-7.196 7.019-7.196 3.237 0 5.511 2.039 6.479 5.628-.953-1.562-2.402-2.628-4.479-2.628-3.632 0-5.858 3.482-8.012 6.851-1.767 2.764-3.592 5.62-5.988 6.132.016-.478.671-1.258 1.365-2.083zm-3.365 21.1v-1.924c1.003.143 2 .477 2 .924 0 .891-.236 1.512-.436 1.883-1.134-.211-1.529-.652-1.564-.883zm3.681.99c.181-.539.319-1.195.319-1.99 0-.156-.017-.303-.042-.445 3.182-2.164 6.694-5.05 10.726-8.825l-1.367-1.46c-3.969 3.716-7.412 6.546-10.515 8.653-.707-.465-1.648-.734-2.615-.85.797-2.162 4.068-5.001 7.507-7.986 3.642-3.16 7.769-6.741 10.154-10.557l.152-.243v-.287c0-2.654-1.009-4-3-4-1.13 0-2.268 1.076-3.991 2.704-.856.809-1.827 1.725-2.879 2.566.53-.759 1.039-1.554 1.543-2.342 1.95-3.049 3.79-5.928 6.327-5.928 3.888 0 4 6.284 4 7v2h2c1.342 0 2.355.462 3.097 1.414 1.816 2.326 1.553 6.862.933 9.344-.17.681-.438 1.563-.757 2.548-8.376 7.409-17.453 8.578-21.592 8.684zm21.876-3.315c.971-2.79 1.974-5.675 2.414-7.433.616-2.463 1.137-7.943-1.296-11.06-1.116-1.427-2.732-2.182-4.675-2.182 0-.182-.003-.366-.009-.55.134-.115.328-.268.547-.433 5.686.175 8.462 3.112 8.462 8.983 0 5.957-5.358 15.643-7.732 19.643.465-1.722 1.451-4.559 2.289-6.968zm-1.328 9.249c1.758-2.833 8.771-14.596 8.771-21.924 0-5.775-2.591-9.437-7.381-10.599.731-.236 1.528-.401 2.381-.401 3.113 0 9 2.299 9 11 0 9.342-7.362 20.552-12.771 21.924zm16.236-10.072c-.192-2.895-.381-5.65-1.991-7.093.15-.716.268-1.428.355-2.135 1.715 1.136 3.171 2.914 3.171 6.376 0 .644-.027 1.288-.054 1.941-.118 2.862-.24 6.045 1.756 10.083-2.747-1.85-2.997-5.56-3.237-9.172z" fill="#4d4d4d"/></g><g transform="matrix(0.9375 0 0 0.9375 63 89)" id="L1_20"><path d="m26.287 38.299 1.427 1.401c1.763-1.795 2.98-2.98 2.984-2.984l-1.395-1.434c0 .001-1.232 1.199-3.016 3.017z" fill="#7d7d7d"/><path d="m56.482 50.008c.255-1.807.518-3.675.518-6.008 0-9.443-5.847-11.541-9.537-11.923 2.537-6.394 2.537-10.296 2.537-14.077 0-9.533-4.71-17-10.724-17-1.002 0-1.845.346-2.505 1.029-1.897 1.961-1.75 6.356-1.608 10.607.081 2.399.156 4.667-.144 6.168-.582 2.91-2.122 5.337-3.284 6.838-1.032-6.295-4.99-8.642-8.735-8.642-3.472 0-7.893 3.366-8.98 8.804-.53 2.648-2.002 4.401-3.186 5.81-.984 1.17-1.834 2.181-1.834 3.386 0 1.299 1.03 2 2 2 4.202 0 7.774-3.377 10.383-5.842.931-.881 2.207-2.087 2.617-2.158.651 0 .962.256.997 1.714-2.253 3.477-6.159 6.865-9.613 9.862-4.499 3.903-8.384 7.274-8.384 10.424v3c0 .123.057 3 5 3 3.622 0 12.449-.765 21.081-7.172-.137.396-.275.794-.413 1.19-1.66 4.773-2.668 7.758-2.668 8.982 0 2.201 1.794 3 3 3h.083l.082-.014c5.308-.885 11.181-8.584 13.644-16.657.428 1.144.539 2.821.661 4.655.299 4.504.709 10.672 7.334 11.997l.196.019c1.299 0 2-1.03 2-2l-.039-.276c-1.333-4.649-.937-7.461-.479-10.716zm-1.482-6.008c0 2.192-.253 3.99-.498 5.729-.402 2.854-.784 5.573.021 9.465-1.799-3.612-1.691-6.432-1.578-9.171.028-.68.055-1.352.055-2.023 0-5.077-2.715-7.353-5.009-8.609.002-.13.009-.262.009-.391 0-1.891-.247-3.522-.668-4.932 6.631.676 7.668 6.421 7.668 9.932zm-18.02-24.804c.346-1.729.267-4.108.182-6.627-.116-3.475-.261-7.798 1.046-9.15.277-.286.617-.419 1.068-.419 4.81 0 8.724 6.729 8.724 15 0 3.639-.008 7.103-2.192 12.805-2.43-3.638-6.332-4.805-8.808-4.805-1.296 0-2.487.281-3.528.676 1.276-1.685 2.873-4.3 3.508-7.48zm-24.615 13.704c1.26-1.5 2.986-3.553 3.616-6.704.938-4.695 4.68-7.196 7.019-7.196 3.237 0 5.511 2.039 6.479 5.628-.953-1.562-2.402-2.628-4.479-2.628-3.632 0-5.858 3.482-8.012 6.851-1.767 2.764-3.592 5.62-5.988 6.132.016-.478.671-1.258 1.365-2.083zm-3.365 21.1v-1.924c1.003.143 2 .477 2 .924 0 .891-.236 1.512-.436 1.883-1.134-.211-1.529-.652-1.564-.883zm3.681.99c.181-.539.319-1.195.319-1.99 0-.156-.017-.303-.042-.445 3.182-2.164 6.694-5.05 10.726-8.825l-1.367-1.46c-3.969 3.716-7.412 6.546-10.515 8.653-.707-.465-1.648-.734-2.615-.85.797-2.162 4.068-5.001 7.507-7.986 3.642-3.16 7.769-6.741 10.154-10.557l.152-.243v-.287c0-2.654-1.009-4-3-4-1.13 0-2.268 1.076-3.991 2.704-.856.809-1.827 1.725-2.879 2.566.53-.759 1.039-1.554 1.543-2.342 1.95-3.049 3.79-5.928 6.327-5.928 3.888 0 4 6.284 4 7v2h2c1.342 0 2.355.462 3.097 1.414 1.816 2.326 1.553 6.862.933 9.344-.17.681-.438 1.563-.757 2.548-8.376 7.409-17.453 8.578-21.592 8.684zm21.876-3.315c.971-2.79 1.974-5.675 2.414-7.433.616-2.463 1.137-7.943-1.296-11.06-1.116-1.427-2.732-2.182-4.675-2.182 0-.182-.003-.366-.009-.55.134-.115.328-.268.547-.433 5.686.175 8.462 3.112 8.462 8.983 0 5.957-5.358 15.643-7.732 19.643.465-1.722 1.451-4.559 2.289-6.968zm-1.328 9.249c1.758-2.833 8.771-14.596 8.771-21.924 0-5.775-2.591-9.437-7.381-10.599.731-.236 1.528-.401 2.381-.401 3.113 0 9 2.299 9 11 0 9.342-7.362 20.552-12.771 21.924zm16.236-10.072c-.192-2.895-.381-5.65-1.991-7.093.15-.716.268-1.428.355-2.135 1.715 1.136 3.171 2.914 3.171 6.376 0 .644-.027 1.288-.054 1.941-.118 2.862-.24 6.045 1.756 10.083-2.747-1.85-2.997-5.56-3.237-9.172z" fill="#7d7d7d"/></g><path d="M50.976,26.194C50.447,17.194,43.028,10,34.085,10c-5.43,0-10.688,2.663-13.946,7.008c-0.075-0.039-0.154-0.066-0.23-0.102  c-0.198-0.096-0.399-0.187-0.604-0.269c-0.114-0.045-0.228-0.086-0.343-0.126c-0.203-0.071-0.409-0.134-0.619-0.191  c-0.115-0.031-0.229-0.063-0.345-0.089c-0.225-0.051-0.455-0.09-0.687-0.125c-0.101-0.015-0.2-0.035-0.302-0.046  C16.677,16.023,16.341,16,16,16c-4.963,0-9,4.037-9,9c0,0.127,0.008,0.252,0.016,0.377v0.004C2.857,27.649,0,32.399,0,37.154  C0,44.237,5.762,50,12.845,50h24.508c0.104,0,0.207-0.006,0.311-0.014l0.062-0.008l0.134,0.008C37.962,49.994,38.064,50,38.169,50  h9.803C54.604,50,60,44.604,60,37.972C60,32.483,56.173,27.56,50.976,26.194z M47.972,48h-9.803c-0.059,0-0.116-0.005-0.174-0.009  l-0.271-0.011l-0.198,0.011C37.469,47.995,37.411,48,37.353,48H12.845C6.865,48,2,43.135,2,37.154C2,33,4.705,28.688,8.433,26.901  L9,26.63V26c0-0.127,0.008-0.256,0.015-0.386l0.009-0.16l-0.012-0.21C9.006,25.163,9,25.082,9,25c0-3.859,3.141-7,7-7  c0.309,0,0.614,0.027,0.917,0.067c0.078,0.01,0.156,0.023,0.233,0.036c0.267,0.044,0.53,0.102,0.789,0.177  c0.035,0.01,0.071,0.017,0.106,0.027c0.285,0.087,0.563,0.197,0.835,0.321c0.071,0.032,0.14,0.067,0.21,0.101  c0.24,0.119,0.475,0.249,0.702,0.396C21.719,20.373,23,22.538,23,25c0,0.553,0.447,1,1,1s1-0.447,1-1c0-2.754-1.246-5.219-3.2-6.871  C24.667,14.379,29.388,12,34.085,12c7.745,0,14.177,6.135,14.848,13.888c-1.022-0.072-2.552-0.109-4.083,0.124  c-0.546,0.083-0.921,0.593-0.838,1.139c0.075,0.495,0.501,0.85,0.987,0.85c0.05,0,0.101-0.004,0.151-0.012  c2.227-0.337,4.548-0.021,4.684-0.002C54.49,28.872,58,33.161,58,37.972C58,43.501,53.501,48,47.972,48z" transform="matrix(1 0 0 1 317 -23)" id="L1_23" fill="#ababab"/><g transform="matrix(-0.9092796444892883 0 0 0.9092796444892883 352.3243995308876 196.23629884054003)" id="L1_24"><path d="M65.496,26.676c0,0-1.896-14.144,0-16.144h-9.842c0,0,4.91,10.714,2.319,15.069    l0,0" id="path-1_43_" fill="#78b098"/><path d="M38.953,43.216c-10.784,3.934-22.509,1.071-29.848-3.195    c-2.069-1.202-4.277,0.809-3.419,3.194c0.007,0.021,0.015,0.044,0.024,0.066c4.182,11.467,22.049,19.617,38.265,13.703    C60.19,51.069,68.614,33.33,64.432,21.863c-0.008-0.022-0.016-0.044-0.025-0.066c-0.879-2.377-3.863-2.494-4.672-0.243    C56.865,29.544,49.737,39.283,38.953,43.216z" id="path-2_43_" fill="#edc951"/><path d="M28.683,58.464c-12.923,0-24.86-7.01-28.383-16.668c-0.521-1.45-0.354-2.88,0.434-3.999    c1.123-1.6,3.368-2.094,5.125-1.073c5.314,3.089,11.943,4.86,18.188,4.86c3.663,0,7.16-0.597,10.392-1.777    c10.556-3.85,17.309-13.589,19.884-20.759c0.57-1.586,1.987-2.611,3.61-2.611c1.72,0,3.243,1.115,3.881,2.839    c2.216,6.075,1.217,13.879-2.645,20.949c-4.117,7.534-10.75,13.276-18.68,16.168C36.722,57.767,32.75,58.464,28.683,58.464z     M3.838,39.162c-0.253,0-0.49,0.132-0.65,0.36c-0.128,0.181-0.31,0.577-0.091,1.185c3.077,8.439,14.068,14.757,25.586,14.757    c3.716,0,7.342-0.636,10.778-1.889c7.244-2.643,13.309-7.895,17.075-14.789c3.455-6.323,4.385-13.205,2.487-18.409    c-0.262-0.708-0.731-0.94-1.09-0.94c-0.256,0-0.601,0.109-0.786,0.624c-2.929,8.154-10.162,18.364-21.68,22.565    c-3.563,1.299-7.405,1.958-11.42,1.958c-6.758,0-13.938-1.919-19.696-5.266C4.174,39.215,4.001,39.162,3.838,39.162z" id="path-3_43_" fill="#000000"/><path d="M61.494,25.926c-0.741,0-1.386-0.549-1.486-1.304c-0.574-4.359-1.263-11.197-0.588-15.09h-5.522    c1.384,3.607,3.602,10.7,1.364,14.46c-0.422,0.712-1.343,0.946-2.055,0.523c-0.713-0.424-0.947-1.344-0.523-2.056    c1.593-2.677-0.625-9.89-2.397-13.808c-0.21-0.465-0.17-1.004,0.107-1.432c0.276-0.428,0.751-0.687,1.26-0.687h9.842    c0.599,0,1.141,0.357,1.378,0.908c0.236,0.55,0.123,1.189-0.29,1.624c-0.786,1.185-0.438,8.81,0.399,15.167    c0.108,0.821-0.47,1.574-1.291,1.683C61.625,25.923,61.559,25.926,61.494,25.926z" id="path-4_43_" fill="#000000"/><path d="M30.355,52.801c-5.003,0-8.414-1.591-8.656-1.707c-0.746-0.359-1.061-1.255-0.702-2.002    c0.358-0.745,1.253-1.059,1.997-0.704c0.369,0.174,9.007,4.131,18.857-1.993c0.704-0.437,1.629-0.221,2.066,0.482    c0.438,0.704,0.222,1.629-0.482,2.066C38.631,51.929,34.057,52.801,30.355,52.801z" id="path-5_43_" fill="#000000"/></g><g transform="matrix(-1.5060160160064697 0 0 1.5060160160064697 233.41844844818115 124.50284159183502)" id="L1_25"><path d="m48.777 16.239-.507 1.935a4.994 4.994 0 0 1 -1.27 9.826v2a6.995 6.995 0 0 0 1.777-13.761z" fill="#ffaa54"/><path d="m12 23a5.019 5.019 0 0 1 4.582-4.975l-.164-1.993a7 7 0 0 0 .582 13.968v-2a5.006 5.006 0 0 1 -5-5z" fill="#ffaa54"/><path d="m19 28h4v2h-4z" fill="#ffaa54"/><path d="m33 49h2v2h-2z" fill="#ffaa54"/><path d="m54 49h2v2h-2z" fill="#ffaa54"/><path d="m61 40a1 1 0 0 0 1-1v-16a1 1 0 0 0 -1-1h-3.05a10.992 10.992 0 0 0 -7.66-9.49 8.984 8.984 0 0 0 -11.59-4.88 13.091 13.091 0 0 0 -10.7-5.63 12.949 12.949 0 0 0 -12.67 10.13 11.083 11.083 0 0 0 -9.28 9.87h-3.05a1 1 0 0 0 -1 1v17a1 1 0 0 0 1 1h7v8a1 1 0 0 0 -1-1h-6a1 1 0 0 0 -1 1v12a1 1 0 0 0 1 1h14a1 1 0 0 0 1-1v-7a1 1 0 0 0 -1-1h-1v-2a1 1 0 0 0 -1-1h-3v-10a1 1 0 0 0 -1-1h-7v-15h2.05a11.011 11.011 0 0 0 10.95 10h14v12h-5a1 1 0 0 0 -1 1v10a1 1 0 0 0 1 1h3v2h-2v2h10v-2h-2v-2h3a1 1 0 0 0 1-1v-10a1 1 0 0 0 -1-1h-5v-12h14a11.011 11.011 0 0 0 10.95-10h2.05v14h-7a1 1 0 0 0 -1 1v7h-3a3.009 3.009 0 0 0 -3 3v7.18a3 3 0 0 0 1 5.82h12a3 3 0 0 0 1-5.82v-7.18a3.009 3.009 0 0 0 -3-3h-3v-6zm-45 15v5h-9v-5zm-2-3v1h-8a1 1 0 0 0 -1 1v6h-1v-10h4v1a1 1 0 0 0 1 1zm19 8h-2v-2h2zm4-12v8h-10v-8zm10-16h-30a9 9 0 0 1 -.74-17.96 1 1 0 0 0 .9-.84 10.982 10.982 0 0 1 20.3-3.79 1 1 0 0 0 1.32.38 6.978 6.978 0 0 1 9.81 3.88.993.993 0 0 0 .69.63 9 9 0 0 1 -2.28 17.7zm13 27a1 1 0 0 1 -1 1h-12a1 1 0 0 1 0-2h12a1 1 0 0 1 1 1zm-3-11a1 1 0 0 1 1 1v7h-10v-7a1 1 0 0 1 1-1z" fill="#ffaa54"/><path d="m14 39h2v2h-2z" fill="#ffaa54"/><path d="m18 39h2v2h-2z" fill="#ffaa54"/><path d="m22 39h2v2h-2z" fill="#ffaa54"/><path d="m26 39h2v2h-2z" fill="#ffaa54"/><path d="m36 39h2v2h-2z" fill="#ffaa54"/><path d="m40 39h2v2h-2z" fill="#ffaa54"/><path d="m44 39h2v2h-2z" fill="#ffaa54"/><path d="m48 39h2v2h-2z" fill="#ffaa54"/></g><g transform="matrix(0.11718767136335373 0 0 0.11718767136335373 206.00000001464844 274)" id="L1_26"><path d="m361.480469 309.242188-17.652344 9.777343c-3.625 2.011719-4.933594 6.574219-2.925781 10.195313 1.367187 2.472656 3.925781 3.867187 6.566406 3.867187 1.226562 0 2.476562-.300781 3.628906-.9375l17.652344-9.78125c3.621094-2.007812 4.933594-6.574219 2.925781-10.195312-2.007812-3.625-6.574219-4.933594-10.195312-2.925781zm0 0"/><path d="m361.480469 287.960938-17.652344 9.777343c-3.625 2.007813-4.9375 6.574219-2.925781 10.199219 1.367187 2.46875 3.925781 3.863281 6.566406 3.863281 1.226562 0 2.476562-.300781 3.625-.9375l17.65625-9.78125c3.621094-2.007812 4.933594-6.570312 2.925781-10.195312-2.007812-3.625-6.574219-4.933594-10.195312-2.925781zm0 0"/><path d="m485.9375 377.816406c.71875-1.171875 1.121094-2.550781 1.121094-3.929687v-65.980469c0-4.144531-3.359375-7.5-7.503906-7.5-4.140626 0-7.5 3.355469-7.5 7.5v54.425781l-72.121094-32.167969v-139.367187l72.121094-39.957031v124.40625c0 4.144531 3.359374 7.5 7.5 7.5 4.144531 0 7.503906-3.355469 7.503906-7.5v-137.136719c0-2.675781-1.523438-5.261719-3.867188-6.558594l-235.777344-130.625c-2.238281-1.234375-5.03125-1.234375-7.269531 0l-235.777343 130.625c-2.382813 1.316407-3.898438 3.929688-3.867188 6.648438v235.6875c0 2.679687 1.519531 5.261719 3.867188 6.5625l103.882812 57.554687c3.625 2.003906 8.1875.695313 10.195312-2.925781 2.007813-3.625.695313-8.191406-2.925781-10.195313l-90.734375-50.269531 69.972656-31.207031 141.519532 78.402344v69.972656l-91.011719-50.417969c-3.621094-2.007812-8.1875-.699219-10.195313 2.925781-2.007812 3.621094-.695312 8.1875 2.925782 10.195313l102.148437 56.589844c2.226563 1.234375 5.042969 1.234375 7.269531 0l107.128907-59.355469c3.625-2.007812 4.933593-6.570312 2.925781-10.195312-2.003906-3.621094-6.570312-4.933594-10.195312-2.925782l-95.996094 53.183594v-69.972656l141.519531-78.402344 69.972656 31.207031-85.769531 47.519531c-3.625 2.007813-4.933594 6.570313-2.925781 10.195313 1.367187 2.472656 3.925781 3.867187 6.566406 3.867187 1.226563 0 2.476563-.304687 3.628906-.941406l98.921875-54.804687c1.109375-.613281 2.082032-1.554688 2.746094-2.632813zm-242.160156-265.222656 133.179687 73.785156-133.179687 73.78125-133.175782-73.78125zm148.65625 65.210938-141.15625-78.203126v-79.386718l212.800781 117.894531zm-156.15625-78.203126-141.152344 78.203126-71.648438-39.695313 212.800782-117.894531zm-220.777344 51.238282 72.121094 39.957031v139.367187l-72.121094 32.167969zm87.125 48.269531 54.441406 30.160156 79.210938 43.886719v131.503906l-133.652344-74.046875zm148.652344 74.046875 133.65625-74.046875v131.503906l-133.65625 74.046875zm0 0"/></g><g transform="matrix(0.20000000298023224 0 0 0.20000000298023224 -21 94.00000080566406)" id="L1_27"><path d="m240 61.377c6.617 0 12-5.383 12-12s-5.383-12-12-12-12 5.383-12 12 5.383 12 12 12zm0-16c2.205 0 4 1.793 4 4s-1.795 4-4 4-4-1.793-4-4 1.795-4 4-4z"/><path d="m54.189 202.822c-2.501-.005-4.533 2.02-4.538 4.521s2.02 4.533 4.521 4.538c2.502.005 4.533-2.02 4.538-4.521.005-2.502-2.019-4.533-4.521-4.538z"/><path d="m82.369 241.1c-1.561-1.566-4.094-1.566-5.658-.008l-4.527 4.511-4.51-4.527c-1.561-1.566-4.096-1.566-5.656-.008-1.566 1.559-1.57 4.09-.012 5.656l4.51 4.527-4.528 4.512c-1.564 1.559-1.568 4.09-.01 5.656.781.785 1.809 1.176 2.834 1.176 1.021 0 2.043-.391 2.824-1.168l4.525-4.509 4.512 4.529c.781.785 1.809 1.176 2.834 1.176 1.021 0 2.043-.387 2.822-1.168 1.566-1.559 1.57-4.09.012-5.656l-4.512-4.529 4.53-4.514c1.565-1.559 1.569-4.09.01-5.656z"/><path d="m252 109.377h-64v-64c0-2.211-1.791-4-4-4h-136c-2.209 0-4 1.789-4 4v136c0 2.211 1.791 4 4 4h64v64c0 2.211 1.791 4 4 4h136c2.209 0 4-1.789 4-4v-136c0-2.211-1.791-4-4-4zm-38.346 136 34.346-34.346v16.701c-.012.012-.029.015-.041.027l-17.615 17.617h-16.69zm34.346-45.658-45.334 45.334c-.096.096-.131.222-.215.324h-16.793l62.342-62.344zm-90.342 45.658 90.342-90.346v16.689l-73.654 73.656h-16.688zm90.342-101.658-101.654 101.658h-16.691l118.345-118.344zm-162.346 33.658 26.346-26.346v16.688l-9.656 9.658zm-27.998 0 54.344-54.343v16.685l-37.658 37.658zm32.689-128-38.345 38.344v-16.686l21.656-21.658zm55.999 0-94.344 94.342v-16.686l77.658-77.656zm-94.344 66.344v-16.688l49.4-49.398c.076-.076.103-.177.171-.258h16.774zm0 39.31 105.262-105.26c.116-.116.163-.268.262-.395h16.822l-61.167 61.166c-.004.004-.008.008-.011.012l-61.168 61.167zm166.345-37.654-30.345 30.344v-16.688l13.656-13.656zm27.999 0-58.344 58.343v-16.687l41.658-41.656zm-126.344 60v-60h60v60zm60-77.614c-.036.034-.084.044-.119.079l-9.537 9.535h-16.689l26.345-26.344zm-18.439 85.614h16.782l-58.343 58.342v-16.684l41.371-41.373c.084-.084.114-.195.19-.285zm18.439-113.569c-.081.068-.182.095-.258.171l-37.4 37.398h-16.685l54.343-54.342zm-60 113.569h2.344l-2.344 2.344zm0 13.656 13.656-13.656h16.688l-30.344 30.346zm70.344-81.656-2.344 2.344v-2.344zm-128-68-10.344 10.345v-10.345zm179.312 196 6.344-6.345v6.345z"/></g></defs><g fi:class="KUsePattern"><pattern id="pattern_L1_23" width="350" height="350" patternUnits="userSpaceOnUse"><use xlink:href="#L1_23" x="-350" y="-350"/><use xlink:href="#L1_23" x="0" y="-350"/><use xlink:href="#L1_23" x="350" y="-350"/><use xlink:href="#L1_23" x="-350" y="0"/><use xlink:href="#L1_23" x="0" y="0"/><use xlink:href="#L1_23" x="350" y="0"/><use xlink:href="#L1_23" x="-350" y="350"/><use xlink:href="#L1_23" x="0" y="350"/><use xlink:href="#L1_23" x="350" y="350"/></pattern><rect x="0" y="0" width="100%" height="100%" fill="url(#pattern_L1_23)"/></g><g fi:class="KUsePattern"><pattern id="pattern_L1_18" width="350" height="350" patternUnits="userSpaceOnUse"><use xlink:href="#L1_18" x="-350" y="-350"/><use xlink:href="#L1_18" x="0" y="-350"/><use xlink:href="#L1_18" x="350" y="-350"/><use xlink:href="#L1_18" x="-350" y="0"/><use xlink:href="#L1_18" x="0" y="0"/><use xlink:href="#L1_18" x="350" y="0"/><use xlink:href="#L1_18" x="-350" y="350"/><use xlink:href="#L1_18" x="0" y="350"/><use xlink:href="#L1_18" x="350" y="350"/></pattern><rect x="0" y="0" width="100%" height="100%" fill="url(#pattern_L1_18)"/></g><g fi:class="KUsePattern"><pattern id="pattern_L1_19" width="350" height="350" patternUnits="userSpaceOnUse"><use xlink:href="#L1_19" x="-350" y="-350"/><use xlink:href="#L1_19" x="0" y="-350"/><use xlink:href="#L1_19" x="350" y="-350"/><use xlink:href="#L1_19" x="-350" y="0"/><use xlink:href="#L1_19" x="0" y="0"/><use xlink:href="#L1_19" x="350" y="0"/><use xlink:href="#L1_19" x="-350" y="350"/><use xlink:href="#L1_19" x="0" y="350"/><use xlink:href="#L1_19" x="350" y="350"/></pattern><rect x="0" y="0" width="100%" height="100%" fill="url(#pattern_L1_19)"/></g><g fi:class="KUsePattern"><pattern id="pattern_L1_20" width="350" height="350" patternUnits="userSpaceOnUse"><use xlink:href="#L1_20" x="-350" y="-350"/><use xlink:href="#L1_20" x="0" y="-350"/><use xlink:href="#L1_20" x="350" y="-350"/><use xlink:href="#L1_20" x="-350" y="0"/><use xlink:href="#L1_20" x="0" y="0"/><use xlink:href="#L1_20" x="350" y="0"/><use xlink:href="#L1_20" x="-350" y="350"/><use xlink:href="#L1_20" x="0" y="350"/><use xlink:href="#L1_20" x="350" y="350"/></pattern><rect x="0" y="0" width="100%" height="100%" fill="url(#pattern_L1_20)"/></g><g fi:class="KUsePattern" opacity="0.6"><pattern id="pattern_L1_24" width="350" height="350" patternUnits="userSpaceOnUse"><use xlink:href="#L1_24" x="-350" y="-350"/><use xlink:href="#L1_24" x="0" y="-350"/><use xlink:href="#L1_24" x="350" y="-350"/><use xlink:href="#L1_24" x="-350" y="0"/><use xlink:href="#L1_24" x="0" y="0"/><use xlink:href="#L1_24" x="350" y="0"/><use xlink:href="#L1_24" x="-350" y="350"/><use xlink:href="#L1_24" x="0" y="350"/><use xlink:href="#L1_24" x="350" y="350"/></pattern><rect x="0" y="0" width="100%" height="100%" fill="url(#pattern_L1_24)"/></g><g fi:class="KUsePattern" opacity="0.67"><pattern id="pattern_L1_26" width="350" height="350" patternUnits="userSpaceOnUse"><use xlink:href="#L1_26" x="-350" y="-350"/><use xlink:href="#L1_26" x="0" y="-350"/><use xlink:href="#L1_26" x="350" y="-350"/><use xlink:href="#L1_26" x="-350" y="0"/><use xlink:href="#L1_26" x="0" y="0"/><use xlink:href="#L1_26" x="350" y="0"/><use xlink:href="#L1_26" x="-350" y="350"/><use xlink:href="#L1_26" x="0" y="350"/><use xlink:href="#L1_26" x="350" y="350"/></pattern><rect x="0" y="0" width="100%" height="100%" fill="url(#pattern_L1_26)"/></g><g fi:class="KUsePattern" opacity="1"><pattern id="pattern_L1_25" width="350" height="350" patternUnits="userSpaceOnUse"><use xlink:href="#L1_25" x="-350" y="-350"/><use xlink:href="#L1_25" x="0" y="-350"/><use xlink:href="#L1_25" x="350" y="-350"/><use xlink:href="#L1_25" x="-350" y="0"/><use xlink:href="#L1_25" x="0" y="0"/><use xlink:href="#L1_25" x="350" y="0"/><use xlink:href="#L1_25" x="-350" y="350"/><use xlink:href="#L1_25" x="0" y="350"/><use xlink:href="#L1_25" x="350" y="350"/></pattern><rect x="0" y="0" width="100%" height="100%" fill="url(#pattern_L1_25)"/></g><g fi:class="KUsePattern" opacity="0.68"><pattern id="pattern_L1_27" width="350" height="350" patternUnits="userSpaceOnUse"><use xlink:href="#L1_27" x="-350" y="-350"/><use xlink:href="#L1_27" x="0" y="-350"/><use xlink:href="#L1_27" x="350" y="-350"/><use xlink:href="#L1_27" x="-350" y="0"/><use xlink:href="#L1_27" x="0" y="0"/><use xlink:href="#L1_27" x="350" y="0"/><use xlink:href="#L1_27" x="-350" y="350"/><use xlink:href="#L1_27" x="0" y="350"/><use xlink:href="#L1_27" x="350" y="350"/></pattern><rect x="0" y="0" width="100%" height="100%" fill="url(#pattern_L1_27)"/></g></svg>